<?xml version="1.0" encoding="UTF-8"?>
<!DOCTYPE svg PUBLIC "-//W3C//DTD SVG 1.1//EN" "http://www.w3.org/Graphics/SVG/1.1/DTD/svg11.dtd">
<svg version="1.1" xmlns="http://www.w3.org/2000/svg" xmlns:xlink="http://www.w3.org/1999/xlink" x="0" y="0" width="16" height="16" viewBox="0, 0, 16, 16">
  <g id="Layer_1">
    <path d="M16,8 C16,12.419 12.419,16 8,16 C3.581,16 0,12.419 0,8 C0,3.581 3.581,0 8,0 C12.419,0 16,3.581 16,8 z" fill="#828282"/>
    <g>
      <path d="M5.394,11.637 L4.431,11.637 L4.431,4.944 L5.394,4.944 L5.394,7.969 L5.394,11.637 z" fill-opacity="0" stroke="#FFFFFF" stroke-width="1"/>
      <path d="M6.806,4.944 L9.406,4.944 C11.881,4.944 12.969,6.713 12.969,8.294 C12.969,10.013 11.625,11.644 9.419,11.644 L6.806,11.644 L6.806,4.944 z M7.769,10.775 L9.3,10.775 C11.481,10.775 11.981,9.119 11.981,8.294 C11.981,6.95 11.125,5.813 9.25,5.813 L7.769,5.813 L7.769,10.775 z" fill-opacity="0" stroke="#FFFFFF" stroke-width="1"/>
      <path d="M5.544,3.55 C5.544,3.894 5.263,4.181 4.913,4.181 C4.563,4.181 4.281,3.894 4.281,3.55 C4.281,3.2 4.563,2.919 4.913,2.919 C5.263,2.919 5.544,3.206 5.544,3.55 z" fill-opacity="0" stroke="#FFFFFF" stroke-width="1"/>
    </g>
  </g>
</svg>
