<?xml version="1.0" encoding="UTF-8"?>
<!DOCTYPE svg PUBLIC "-//W3C//DTD SVG 1.1//EN" "http://www.w3.org/Graphics/SVG/1.1/DTD/svg11.dtd">
<svg version="1.1" xmlns="http://www.w3.org/2000/svg" xmlns:xlink="http://www.w3.org/1999/xlink" x="0" y="0" width="16" height="16" viewBox="0, 0, 16, 16">
  <g id="Layer_1">
    <path d="M6.474,10.891 C6.801,11.292 7.133,11.664 7.467,12.004 C6.382,12.981 5.404,13.484 4.775,13.484 C4.596,13.484 4.445,13.443 4.327,13.362 C3.839,13.028 3.801,11.971 4.248,10.545 C4.934,10.708 5.685,10.825 6.474,10.891 z M5.857,5.915 C5.37,5.976 4.914,6.056 4.496,6.153 C4.632,6.5 4.793,6.862 4.98,7.237 C5.163,6.934 5.357,6.631 5.563,6.331 C5.66,6.189 5.758,6.051 5.857,5.915 z M16,8 C16,12.418 12.418,16 8,16 C3.582,16 0,12.418 0,8 C0,3.582 3.582,0 8,0 C12.418,0 16,3.582 16,8 z M12.987,5.827 C12.819,5.763 12.643,5.704 12.462,5.648 C12.518,5.467 12.568,5.288 12.611,5.114 C12.981,3.608 12.796,2.512 12.09,2.029 C11.847,1.862 11.556,1.777 11.225,1.777 C10.332,1.777 9.178,2.409 8,3.482 C6.822,2.409 5.668,1.777 4.775,1.777 C4.444,1.777 4.153,1.862 3.91,2.029 C3.204,2.512 3.019,3.608 3.389,5.114 C3.432,5.288 3.482,5.467 3.538,5.648 C3.357,5.704 3.181,5.764 3.013,5.827 C1.562,6.373 0.762,7.145 0.762,8 C0.762,8.855 1.562,9.627 3.013,10.173 C3.181,10.237 3.356,10.296 3.538,10.352 C3.481,10.533 3.432,10.712 3.389,10.886 C3.019,12.392 3.204,13.488 3.91,13.971 C4.153,14.138 4.444,14.223 4.775,14.223 C4.775,14.223 4.775,14.223 4.775,14.223 C5.668,14.223 6.822,13.591 8,12.518 C9.178,13.591 10.332,14.223 11.225,14.223 C11.556,14.223 11.847,14.138 12.09,13.971 C12.796,13.488 12.981,12.392 12.611,10.886 C12.568,10.712 12.518,10.533 12.462,10.352 C12.643,10.296 12.819,10.237 12.987,10.173 C14.438,9.627 15.238,8.855 15.238,8 C15.238,7.145 14.438,6.373 12.987,5.827 z M5.857,10.085 C5.758,9.949 5.66,9.811 5.563,9.669 C5.357,9.369 5.163,9.066 4.98,8.763 C4.793,9.138 4.632,9.5 4.496,9.847 C4.914,9.944 5.37,10.024 5.857,10.085 z M12.219,6.345 C12.012,6.883 11.755,7.439 11.454,8 C11.756,8.562 12.013,9.119 12.22,9.657 C13.649,9.221 14.499,8.591 14.499,8 C14.499,7.49 13.837,6.936 12.727,6.518 C12.564,6.457 12.395,6.399 12.219,6.345 z M8.51,5.054 C8.339,4.861 8.169,4.678 8,4.507 C7.831,4.678 7.661,4.861 7.49,5.054 C7.659,5.049 7.829,5.046 8,5.046 C8.171,5.046 8.341,5.049 8.51,5.054 z M7.49,10.946 C7.661,11.139 7.831,11.322 8,11.493 C8.169,11.322 8.339,11.139 8.51,10.946 C8.341,10.951 8.171,10.954 8,10.954 C7.829,10.954 7.659,10.951 7.49,10.946 z M10.144,5.916 C10.242,6.052 10.34,6.19 10.437,6.331 C10.643,6.631 10.837,6.934 11.02,7.237 C11.207,6.863 11.367,6.501 11.503,6.155 C11.075,6.056 10.62,5.976 10.144,5.916 z M9.526,10.891 C9.199,11.292 8.867,11.664 8.533,12.004 C9.618,12.981 10.596,13.484 11.225,13.484 C11.404,13.484 11.555,13.443 11.673,13.362 C12.161,13.028 12.199,11.971 11.752,10.545 C11.066,10.708 10.315,10.825 9.526,10.891 z M3.78,6.343 C2.351,6.779 1.501,7.409 1.501,8 C1.501,8.591 2.351,9.221 3.78,9.657 C3.987,9.119 4.244,8.562 4.546,8 C4.244,7.438 3.987,6.881 3.78,6.343 z M6.474,5.109 C6.801,4.708 7.133,4.336 7.467,3.996 C6.381,3.019 5.404,2.516 4.775,2.516 C4.596,2.516 4.445,2.557 4.327,2.638 C3.839,2.972 3.801,4.029 4.248,5.455 C4.934,5.292 5.685,5.175 6.474,5.109 z M11.02,8.763 C10.837,9.066 10.643,9.369 10.437,9.669 C10.34,9.811 10.242,9.949 10.143,10.085 C10.63,10.024 11.086,9.944 11.504,9.847 C11.368,9.5 11.207,9.138 11.02,8.763 z M11.752,5.455 C12.199,4.029 12.161,2.972 11.673,2.638 C11.555,2.557 11.404,2.516 11.225,2.516 C10.596,2.516 9.619,3.019 8.533,3.997 C8.867,4.336 9.199,4.708 9.526,5.109 C10.315,5.175 11.066,5.292 11.752,5.455 z M6.172,9.252 C5.882,8.828 5.621,8.409 5.388,8 C5.621,7.591 5.882,7.172 6.172,6.748 C6.397,6.42 6.624,6.112 6.851,5.821 C7.221,5.798 7.604,5.785 8,5.785 C8.39,5.785 8.774,5.798 9.149,5.822 C9.377,6.112 9.604,6.421 9.828,6.748 C10.119,7.172 10.379,7.591 10.612,8 C10.379,8.409 10.119,8.828 9.828,9.252 C9.603,9.58 9.377,9.888 9.149,10.179 C8.779,10.202 8.396,10.215 8,10.215 C7.604,10.215 7.221,10.202 6.851,10.179 C6.624,9.888 6.397,9.58 6.172,9.252 z M7.046,7.86 C7.046,8.386 7.473,8.813 8,8.813 C8.527,8.813 8.954,8.386 8.954,7.86 C8.954,7.333 8.527,6.906 8,6.906 C7.473,6.906 7.046,7.333 7.046,7.86 z" fill="#828282"/>
  </g>
</svg>
